<svg width="148" height="146" viewBox="0 0 148 146" fill="none" xmlns="http://www.w3.org/2000/svg">
    <g opacity="0.9">
        <path d="M67.188 29.4745L68.7764 26.2155L70.455 26.0498L68.0788 30.4861L71.2986 34.4642L69.6355 34.6284L67.4089 31.6675L65.7498 35.012L64.079 35.1769L66.5323 30.6388L63.4063 26.7457L65.0694 26.5815L67.188 29.4745Z" fill="white"/>
        <path d="M77.6525 29.3948C77.8698 28.5946 78.2216 27.9144 78.708 27.3542C79.1994 26.7952 79.7722 26.4127 80.4264 26.2066C81.0856 26.0019 81.7759 25.9904 82.4972 26.1723C83.6119 26.4534 84.4077 27.0655 84.8846 28.0085C85.3665 28.9527 85.4338 30.0639 85.0866 31.3422L85.06 31.4403C84.844 32.2354 84.496 32.9113 84.0161 33.4678C83.5426 34.0205 82.973 34.4011 82.3073 34.6097C81.6467 34.8195 80.9482 34.8315 80.2118 34.6458C79.1021 34.3659 78.3063 33.7539 77.8244 32.8096C77.3475 31.8667 77.2813 30.7611 77.6258 29.4929L77.6525 29.3948ZM79.0146 29.9158C78.7686 30.8216 78.7804 31.6016 79.0501 32.2557C79.3248 32.9111 79.8152 33.3278 80.5214 33.5059C81.2326 33.6853 81.8727 33.551 82.4417 33.103C83.0121 32.65 83.4333 31.9227 83.7053 30.9213C83.9487 30.0255 83.9311 29.2467 83.6527 28.585C83.3808 27.9196 82.8917 27.4978 82.1855 27.3197C81.4945 27.1455 80.8626 27.2792 80.2899 27.7209C79.7172 28.1625 79.2921 28.8942 79.0146 29.9158Z" fill="white"/>
        <path d="M96.3333 41.9602L95.1422 41.1315L96.9414 38.6478C96.3227 38.4206 95.7401 38.1169 95.1936 37.7367C94.327 37.1338 93.8244 36.4538 93.6858 35.6966C93.5515 34.9425 93.7738 34.157 94.3528 33.34L95.8353 31.2935L97.02 32.1177L95.5099 34.2023C94.7908 35.2393 94.9179 36.0965 95.8913 36.7737C96.4377 37.1539 97.0203 37.4576 97.6391 37.6848L100.108 34.276L101.3 35.1047L96.3333 41.9602Z" fill="white"/>
        <path d="M105.385 47.0599L111.708 44.9619L112.62 46.2091L102.667 49.1447C101.211 49.5385 100.145 49.2735 99.4691 48.3496L99.3269 48.1155L99.0917 47.6218L100.046 46.9402L100.251 47.2733C100.54 47.6681 100.845 47.9171 101.166 48.0203C101.49 48.1278 101.918 48.0999 102.451 47.9367L103.34 47.6951L108.372 40.4014L109.303 41.6738L105.385 47.0599Z" fill="white"/>
        <path d="M118.247 66.4482C118.64 66.4063 118.936 66.2229 119.134 65.8979C119.338 65.5724 119.414 65.1477 119.363 64.624C119.313 64.1158 119.139 63.7046 118.842 63.3904C118.545 63.0814 118.218 62.9459 117.861 62.9839L117.72 61.5526C118.45 61.475 119.078 61.7174 119.604 62.2798C120.13 62.8421 120.438 63.5822 120.528 64.5001C120.624 65.4854 120.487 66.2755 120.116 66.8703C119.751 67.4646 119.177 67.8033 118.395 67.8864C118.017 67.9266 117.659 67.8494 117.321 67.6548C116.983 67.4602 116.7 67.1628 116.473 66.7626C116.237 67.7779 115.633 68.3373 114.66 68.4408C113.888 68.5228 113.248 68.2896 112.74 67.7411C112.231 67.1927 111.928 66.4206 111.83 65.4249C111.735 64.4552 111.892 63.629 112.302 62.9462C112.716 62.2681 113.328 61.8861 114.135 61.8002L114.275 63.2315C113.866 63.275 113.532 63.4939 113.273 63.8883C113.019 64.2873 112.918 64.7591 112.972 65.3036C113.026 65.8532 113.196 66.2831 113.482 66.5932C113.769 66.9033 114.114 67.0369 114.518 66.994C114.989 66.9439 115.312 66.7655 115.486 66.4588C115.665 66.1568 115.726 65.7076 115.668 65.1112L115.527 63.6722L116.738 63.5433L116.891 65.1068C117.013 66.0842 117.465 66.5313 118.247 66.4482Z" fill="white"/>
        <path d="M111.102 82.1923L111.492 80.7986L114.981 81.7057L116.028 77.9616L112.539 77.0545L112.931 75.6533L121.102 77.7777L120.71 79.1789L117.168 78.2581L116.121 82.0022L119.663 82.923L119.273 84.3167L111.102 82.1923Z" fill="white"/>
        <path d="M105.524 93.8647C105.709 93.8942 105.991 94.0117 106.369 94.2172C106.202 93.2723 106.396 92.4249 106.952 91.6748C107.449 91.0043 108.048 90.589 108.749 90.4289C109.452 90.276 110.097 90.4092 110.686 90.8286C111.402 91.3385 111.758 92.0019 111.755 92.8188C111.752 93.643 111.389 94.5433 110.666 95.5197L109.827 96.6511L110.367 97.0358C110.778 97.3284 111.195 97.4392 111.616 97.3681C112.042 97.3 112.43 97.0293 112.781 96.5557C113.089 96.1409 113.241 95.7176 113.237 95.286C113.233 94.8544 113.081 94.5315 112.78 94.3173L113.646 93.1481C113.99 93.3925 114.231 93.7473 114.372 94.2124C114.514 94.6847 114.526 95.1926 114.408 95.736C114.287 96.2836 114.043 96.8047 113.677 97.2992C113.096 98.0828 112.442 98.5549 111.715 98.7155C110.991 98.8791 110.276 98.7219 109.569 98.2439L106.405 95.9902C105.773 95.5407 105.212 95.2628 104.722 95.1566L104.62 95.0842L105.524 93.8647ZM107.85 92.5731C107.579 92.9376 107.419 93.3512 107.367 93.8139C107.315 94.2765 107.388 94.6897 107.584 95.0536L108.995 96.0583L109.67 95.1468C110.726 93.7221 110.833 92.7095 109.989 92.1091C109.621 91.8466 109.243 91.763 108.855 91.8582C108.467 91.9535 108.132 92.1917 107.85 92.5731Z" fill="white"/>
        <path d="M100.092 110.529L102.42 108.905L98.1926 102.986L99.3792 102.158L103.607 108.078L105.89 106.485L106.57 107.438L100.772 111.482L100.092 110.529Z" fill="white"/>
        <path d="M91.1826 113.643L89.077 114.265C88.1549 114.527 87.3576 114.502 86.6849 114.19C86.0122 113.879 85.5576 113.321 85.3209 112.516C85.0828 111.707 85.1665 110.976 85.5719 110.324C85.9774 109.672 86.6447 109.209 87.5738 108.934L91.0056 107.92L93.3912 116.029L92.0049 116.438L91.1826 113.643ZM90.8497 112.511L89.9523 109.461L87.8917 110.07C87.3722 110.224 87.009 110.475 86.8022 110.824C86.5968 111.178 86.5625 111.587 86.6992 112.052C86.8315 112.502 87.0794 112.827 87.4429 113.03C87.8029 113.238 88.2341 113.274 88.7366 113.136L90.8497 112.511Z" fill="white"/>
        <path d="M64.4906 118.709C63.4616 118.449 62.7331 117.897 62.305 117.052C61.8704 116.212 61.8056 115.23 62.1104 114.108L62.1453 113.979C62.3544 113.209 62.6905 112.557 63.1535 112.024C63.6151 111.495 64.1717 111.132 64.8232 110.936C65.4682 110.744 66.1539 110.74 66.8803 110.923C67.9799 111.2 68.766 111.788 69.2387 112.687C69.71 113.591 69.7781 114.659 69.4432 115.892L69.2587 116.572C68.7926 118.288 68.1044 119.572 67.194 120.423C66.2787 121.273 65.168 121.651 63.862 121.559C63.1216 121.506 62.6033 121.54 62.3069 121.658C62.0105 121.777 61.8193 121.995 61.7332 122.312L60.5831 122.022C60.754 121.393 61.031 120.939 61.4142 120.659C61.7924 120.378 62.314 120.243 62.9791 120.255L64.0868 120.284C64.9724 120.298 65.6881 120.124 66.2339 119.761C66.7732 119.403 67.2112 118.852 67.5478 118.108C66.574 118.777 65.5549 118.977 64.4906 118.709ZM65.0746 117.63C65.7606 117.803 66.3683 117.709 66.8976 117.348C67.4255 116.991 67.8002 116.406 68.0216 115.59L68.0544 115.47C68.2923 114.594 68.2791 113.849 68.015 113.233C67.7445 112.622 67.2638 112.229 66.5727 112.055C65.8766 111.88 65.2571 111.998 64.7142 112.409C64.1712 112.821 63.7658 113.52 63.4979 114.506C63.2887 115.276 63.3255 115.944 63.6084 116.51C63.8848 117.08 64.3735 117.453 65.0746 117.63Z" fill="white"/>
        <path d="M55.4216 111.761C54.9351 112.433 54.3652 112.945 53.7119 113.297C53.0543 113.646 52.3831 113.802 51.698 113.764C51.0088 113.723 50.3589 113.49 49.7484 113.065C48.8049 112.408 48.2769 111.555 48.1645 110.505C48.0478 109.452 48.378 108.389 49.1552 107.316L49.2149 107.233C49.6984 106.566 50.2631 106.057 50.9091 105.706C51.5477 105.356 52.2153 105.201 52.9119 105.241C53.6043 105.278 54.2621 105.513 54.8854 105.947C55.8246 106.6 56.3526 107.454 56.4693 108.507C56.5817 109.557 56.2524 110.614 55.4813 111.679L55.4216 111.761ZM54.3315 110.793C54.8823 110.033 55.1473 109.299 55.1265 108.592C55.1014 107.882 54.79 107.32 54.1923 106.904C53.5904 106.485 52.9439 106.385 52.253 106.603C51.559 106.825 50.9075 107.356 50.2986 108.197C49.754 108.949 49.4948 109.683 49.5211 110.4C49.54 111.119 49.8484 111.686 50.446 112.102C51.0309 112.509 51.6694 112.607 52.3616 112.396C53.0537 112.185 53.7103 111.651 54.3315 110.793Z" fill="white"/>
        <path d="M34.346 98.2419L41.5098 93.7409L42.2938 94.9628L36.143 98.8274L37.6942 101.245L40.4684 99.7048C41.7505 99.0099 42.7631 98.6624 43.5063 98.6625C44.2468 98.6582 44.8584 99.0083 45.3414 99.7127L45.6533 100.199L44.5741 100.877L44.3242 100.545C44.0271 100.179 43.6164 100.041 43.0919 100.13C42.5674 100.22 41.7291 100.593 40.577 101.25L37.4273 103.044L34.346 98.2419Z" fill="white"/>
        <path d="M31.6769 86.857L31.1833 84.366C31.0507 83.6966 31.0562 83.1082 31.1999 82.6006C31.3384 82.0941 31.5885 81.6819 31.9502 81.3639C32.3058 81.0419 32.7413 80.8285 33.2568 80.7239C33.6395 80.6461 34.0125 80.6395 34.3757 80.704C34.7337 80.7695 35.0641 80.9097 35.3668 81.1246C35.6685 81.3344 35.9293 81.619 36.1491 81.9783C36.3629 82.3335 36.5193 82.7615 36.6186 83.2623L37.3171 86.788L29.0342 88.47L28.7532 87.0521L35.8726 85.6063L35.455 83.4986C35.374 83.0898 35.2352 82.7778 35.0386 82.5626C34.842 82.3474 34.6157 82.21 34.3596 82.1503C34.1036 82.0907 33.848 82.0868 33.5928 82.1386C33.3428 82.1894 33.1084 82.2928 32.8898 82.4488C32.6712 82.6048 32.5071 82.8215 32.3975 83.0989C32.2828 83.3773 32.2659 83.7209 32.3469 84.1297L32.8405 86.6207L31.6769 86.857Z" fill="white"/>
        <path d="M26.2925 70.915L33.386 72.4842L34.1084 69.4722L27.0149 67.903L27.3524 66.4959L34.4458 68.065L35.1664 65.0606L28.0729 63.4914L28.4122 62.0767L36.6562 63.9004L34.1972 74.1535L25.9532 72.3298L26.2925 70.915Z" fill="white"/>
        <path d="M41.7435 52.8976C41.3841 53.3647 40.9786 53.7296 40.5271 53.9924C40.0747 54.2479 39.5971 54.4037 39.0946 54.46C38.5952 54.5121 38.0892 54.4619 37.5766 54.3096C37.0639 54.1572 36.5693 53.9047 36.0928 53.552L35.8294 53.357C35.2776 52.9486 34.8484 52.5044 34.5419 52.0245C34.2312 51.5415 34.0319 51.0502 33.944 50.5505C33.8561 50.0507 33.87 49.5679 33.9857 49.1021C34.1014 48.6363 34.304 48.2153 34.5934 47.8391C34.9624 47.3596 35.3641 47.0081 35.7985 46.7847C36.236 46.5571 36.6912 46.443 37.1639 46.4426C37.6325 46.4391 38.1109 46.5336 38.5991 46.7263C39.0831 46.9158 39.5634 47.187 40.0399 47.5397L40.5604 47.9249L36.7054 52.9349L35.7585 52.2341L38.7309 48.3712L38.6431 48.3062C38.3294 48.1 37.9891 47.9454 37.6221 47.8425C37.2583 47.7354 36.897 47.7275 36.5381 47.8187C36.1792 47.9099 35.8487 48.1519 35.5465 48.5446C35.3462 48.805 35.2181 49.0865 35.1624 49.3891C35.1025 49.6886 35.1208 49.9974 35.2173 50.3154C35.3139 50.6333 35.4855 50.9518 35.7322 51.2706C35.9789 51.5895 36.3071 51.9005 36.7168 52.2037L36.9802 52.3987C37.3021 52.6369 37.6385 52.8178 37.9896 52.9414C38.3397 53.0578 38.6865 53.1101 39.0301 53.0984C39.3769 53.0826 39.7047 52.9976 40.0136 52.8435C40.3257 52.6852 40.6026 52.449 40.8443 52.1348C41.1561 51.7297 41.3365 51.3248 41.3855 50.9199C41.4346 50.515 41.4002 50.1036 41.2823 49.6854L42.3748 49.4041C42.485 49.7127 42.5546 50.0529 42.5835 50.4246C42.6124 50.7964 42.5639 51.1919 42.438 51.6113C42.3153 52.0266 42.0838 52.4553 41.7435 52.8976Z" fill="white"/>
    </g>
</svg>
