<svg width="238" height="36" viewBox="0 0 238 36" fill="none" xmlns="http://www.w3.org/2000/svg">
    <path d="M-1.70715e-08 14.728C-7.64319e-09 6.59397 6.59397 7.64319e-09 14.728 1.70715e-08L99 1.14753e-07L99 36L-4.17283e-08 36L-1.70715e-08 14.728Z" fill="#FFD214"/>
    <path d="M94 0L222 1.48367e-07L222 21.3C222 29.4186 215.419 36 207.3 36L94 36L94 0Z" fill="white"/>
    <path d="M19.08 29L15.576 22.64L14.592 22.64L14.592 29L10.488 29L10.488 12.152L17.376 12.152C18.704 12.152 19.832 12.384 20.76 12.848C21.704 13.312 22.408 13.952 22.872 14.768C23.336 15.568 23.568 16.464 23.568 17.456C23.568 18.576 23.248 19.576 22.608 20.456C21.984 21.336 21.056 21.96 19.824 22.328L23.712 29L19.08 29ZM14.592 19.736L17.136 19.736C17.888 19.736 18.448 19.552 18.816 19.184C19.2 18.816 19.392 18.296 19.392 17.624C19.392 16.984 19.2 16.48 18.816 16.112C18.448 15.744 17.888 15.56 17.136 15.56L14.592 15.56L14.592 19.736ZM25.3283 22.28C25.3283 20.904 25.5843 19.696 26.0963 18.656C26.6243 17.616 27.3363 16.816 28.2323 16.256C29.1283 15.696 30.1283 15.416 31.2323 15.416C32.1763 15.416 33.0003 15.608 33.7043 15.992C34.4243 16.376 34.9763 16.88 35.3603 17.504L35.3603 15.608L39.4643 15.608L39.4643 29L35.3603 29L35.3603 27.104C34.9603 27.728 34.4003 28.232 33.6803 28.616C32.9763 29 32.1523 29.192 31.2083 29.192C30.1203 29.192 29.1283 28.912 28.2323 28.352C27.3363 27.776 26.6243 26.968 26.0963 25.928C25.5843 24.872 25.3282 23.656 25.3283 22.28ZM35.3603 22.304C35.3603 21.28 35.0723 20.472 34.4963 19.88C33.9363 19.288 33.2483 18.992 32.4323 18.992C31.6163 18.992 30.9203 19.288 30.3443 19.88C29.7843 20.456 29.5043 21.256 29.5043 22.28C29.5043 23.304 29.7843 24.12 30.3443 24.728C30.9203 25.32 31.6163 25.616 32.4322 25.616C33.2483 25.616 33.9363 25.32 34.4963 24.728C35.0723 24.136 35.3603 23.328 35.3603 22.304ZM41.6173 22.304C41.6173 20.912 41.8973 19.696 42.4573 18.656C43.0333 17.616 43.8253 16.816 44.8333 16.256C45.8573 15.696 47.0253 15.416 48.3373 15.416C50.0173 15.416 51.4173 15.856 52.5373 16.736C53.6733 17.616 54.4173 18.856 54.7693 20.456L50.4013 20.456C50.0333 19.432 49.3213 18.92 48.2653 18.92C47.5133 18.92 46.9133 19.216 46.4653 19.808C46.0173 20.384 45.7933 21.216 45.7933 22.304C45.7933 23.392 46.0173 24.232 46.4653 24.824C46.9133 25.4 47.5133 25.688 48.2653 25.688C49.3213 25.688 50.0333 25.176 50.4013 24.152L54.7693 24.152C54.4173 25.72 53.6733 26.952 52.5373 27.848C51.4013 28.744 50.0013 29.192 48.3373 29.192C47.0253 29.192 45.8573 28.912 44.8333 28.352C43.8253 27.792 43.0333 26.992 42.4573 25.952C41.8973 24.912 41.6173 23.696 41.6173 22.304ZM65.1966 15.464C66.7326 15.464 67.9646 15.976 68.8926 17C69.8206 18.008 70.2846 19.4 70.2846 21.176L70.2846 29L66.2046 29L66.2046 21.728C66.2046 20.832 65.9726 20.136 65.5086 19.64C65.0446 19.144 64.4206 18.896 63.6366 18.896C62.8526 18.896 62.2286 19.144 61.7646 19.64C61.3006 20.136 61.0686 20.832 61.0686 21.728L61.0686 29L56.9646 29L56.9646 11.24L61.0686 11.24L61.0686 17.408C61.4846 16.816 62.0526 16.344 62.7726 15.992C63.4926 15.64 64.3006 15.464 65.1966 15.464ZM72.3204 22.28C72.3204 20.904 72.5764 19.696 73.0884 18.656C73.6164 17.616 74.3284 16.816 75.2244 16.256C76.1204 15.696 77.1204 15.416 78.2244 15.416C79.1684 15.416 79.9924 15.608 80.6964 15.992C81.4164 16.376 81.9684 16.88 82.3524 17.504L82.3524 15.608L86.4564 15.608L86.4564 29L82.3524 29L82.3524 27.104C81.9524 27.728 81.3924 28.232 80.6724 28.616C79.9684 29 79.1444 29.192 78.2004 29.192C77.1124 29.192 76.1204 28.912 75.2244 28.352C74.3284 27.776 73.6164 26.968 73.0884 25.928C72.5764 24.872 72.3204 23.656 72.3204 22.28ZM82.3524 22.304C82.3524 21.28 82.0644 20.472 81.4884 19.88C80.9284 19.288 80.2404 18.992 79.4244 18.992C78.6084 18.992 77.9124 19.288 77.3364 19.88C76.7764 20.456 76.4964 21.256 76.4964 22.28C76.4964 23.304 76.7764 24.12 77.3364 24.728C77.9124 25.32 78.6084 25.616 79.4244 25.616C80.2404 25.616 80.9284 25.32 81.4884 24.728C82.0644 24.136 82.3524 23.328 82.3524 22.304ZM105.693 29.168C104.461 29.168 103.357 28.968 102.381 28.568C101.405 28.168 100.621 27.576 100.029 26.792C99.4534 26.008 99.1494 25.064 99.1174 23.96L103.485 23.96C103.549 24.584 103.765 25.064 104.133 25.4C104.501 25.72 104.981 25.88 105.573 25.88C106.181 25.88 106.661 25.744 107.013 25.472C107.365 25.184 107.541 24.792 107.541 24.296C107.541 23.88 107.397 23.536 107.109 23.264C106.837 22.992 106.493 22.768 106.077 22.592C105.677 22.416 105.101 22.216 104.349 21.992C103.261 21.656 102.373 21.32 101.685 20.984C100.997 20.648 100.405 20.152 99.9094 19.496C99.4134 18.84 99.1654 17.984 99.1654 16.928C99.1654 15.36 99.7334 14.136 100.869 13.256C102.005 12.36 103.485 11.912 105.309 11.912C107.165 11.912 108.661 12.36 109.797 13.256C110.933 14.136 111.541 15.368 111.621 16.952L107.181 16.952C107.149 16.408 106.949 15.984 106.581 15.68C106.213 15.36 105.741 15.2 105.165 15.2C104.669 15.2 104.269 15.336 103.965 15.608C103.661 15.864 103.509 16.24 103.509 16.736C103.509 17.28 103.765 17.704 104.277 18.008C104.789 18.312 105.589 18.64 106.677 18.992C107.765 19.36 108.645 19.712 109.317 20.048C110.005 20.384 110.597 20.872 111.093 21.512C111.589 22.152 111.837 22.976 111.837 23.984C111.837 24.944 111.589 25.816 111.093 26.6C110.613 27.384 109.909 28.008 108.981 28.472C108.053 28.936 106.957 29.168 105.693 29.168ZM120.459 29.192C119.147 29.192 117.963 28.912 116.907 28.352C115.867 27.792 115.043 26.992 114.435 25.952C113.843 24.912 113.547 23.696 113.547 22.304C113.547 20.928 113.851 19.72 114.459 18.68C115.067 17.624 115.899 16.816 116.955 16.256C118.011 15.696 119.195 15.416 120.507 15.416C121.819 15.416 123.003 15.696 124.059 16.256C125.115 16.816 125.947 17.624 126.555 18.68C127.163 19.72 127.467 20.928 127.467 22.304C127.467 23.68 127.155 24.896 126.531 25.952C125.923 26.992 125.083 27.792 124.011 28.352C122.955 28.912 121.771 29.192 120.459 29.192ZM120.459 25.64C121.243 25.64 121.907 25.352 122.451 24.776C123.011 24.2 123.291 23.376 123.291 22.304C123.291 21.232 123.019 20.408 122.475 19.832C121.947 19.256 121.291 18.968 120.507 18.968C119.707 18.968 119.043 19.256 118.515 19.832C117.987 20.392 117.723 21.216 117.723 22.304C117.723 23.376 117.979 24.2 118.491 24.776C119.019 25.352 119.675 25.64 120.459 25.64ZM133.748 11.24L133.748 29L129.644 29L129.644 11.24L133.748 11.24ZM149.946 15.608L149.946 29L145.842 29L145.842 27.176C145.426 27.768 144.858 28.248 144.138 28.616C143.434 28.968 142.65 29.144 141.786 29.144C140.762 29.144 139.858 28.92 139.074 28.472C138.29 28.008 137.682 27.344 137.25 26.48C136.818 25.616 136.602 24.6 136.602 23.432L136.602 15.608L140.682 15.608L140.682 22.88C140.682 23.776 140.914 24.472 141.378 24.968C141.842 25.464 142.466 25.712 143.25 25.712C144.05 25.712 144.682 25.464 145.146 24.968C145.61 24.472 145.842 23.776 145.842 22.88L145.842 15.608L149.946 15.608ZM160.358 25.52L160.358 29L158.27 29C156.782 29 155.622 28.64 154.79 27.92C153.958 27.184 153.542 25.992 153.542 24.344L153.542 19.016L151.91 19.016L151.91 15.608L153.542 15.608L153.542 12.344L157.646 12.344L157.646 15.608L160.334 15.608L160.334 19.016L157.646 19.016L157.646 24.392C157.646 24.792 157.742 25.08 157.934 25.256C158.126 25.432 158.446 25.52 158.894 25.52L160.358 25.52ZM164.708 14.216C163.988 14.216 163.396 14.008 162.932 13.592C162.484 13.16 162.26 12.632 162.26 12.008C162.26 11.368 162.484 10.84 162.932 10.424C163.396 9.992 163.988 9.776 164.708 9.776C165.412 9.776 165.988 9.992 166.436 10.424C166.9 10.84 167.132 11.368 167.132 12.008C167.132 12.632 166.9 13.16 166.436 13.592C165.988 14.008 165.412 14.216 164.708 14.216ZM166.748 15.608L166.748 29L162.644 29L162.644 15.608L166.748 15.608ZM175.818 29.192C174.506 29.192 173.322 28.912 172.266 28.352C171.226 27.792 170.402 26.992 169.794 25.952C169.202 24.912 168.906 23.696 168.906 22.304C168.906 20.928 169.21 19.72 169.818 18.68C170.426 17.624 171.258 16.816 172.314 16.256C173.37 15.696 174.554 15.416 175.866 15.416C177.178 15.416 178.362 15.696 179.418 16.256C180.474 16.816 181.306 17.624 181.914 18.68C182.522 19.72 182.826 20.928 182.826 22.304C182.826 23.68 182.514 24.896 181.89 25.952C181.282 26.992 180.442 27.792 179.37 28.352C178.314 28.912 177.13 29.192 175.818 29.192ZM175.818 25.64C176.602 25.64 177.266 25.352 177.81 24.776C178.37 24.2 178.65 23.376 178.65 22.304C178.65 21.232 178.378 20.408 177.834 19.832C177.306 19.256 176.65 18.968 175.866 18.968C175.066 18.968 174.402 19.256 173.874 19.832C173.346 20.392 173.082 21.216 173.082 22.304C173.082 23.376 173.338 24.2 173.85 24.776C174.378 25.352 175.034 25.64 175.818 25.64ZM193.164 15.464C194.732 15.464 195.98 15.976 196.908 17C197.852 18.008 198.324 19.4 198.324 21.176L198.324 29L194.244 29L194.244 21.728C194.244 20.832 194.012 20.136 193.548 19.64C193.084 19.144 192.46 18.896 191.676 18.896C190.892 18.896 190.268 19.144 189.804 19.64C189.34 20.136 189.108 20.832 189.108 21.728L189.108 29L185.004 29L185.004 15.608L189.108 15.608L189.108 17.384C189.524 16.792 190.084 16.328 190.788 15.992C191.492 15.64 192.284 15.464 193.164 15.464ZM206.624 29.192C205.456 29.192 204.416 28.992 203.504 28.592C202.592 28.192 201.872 27.648 201.344 26.96C200.816 26.256 200.52 25.472 200.456 24.608L204.512 24.608C204.56 25.072 204.776 25.448 205.16 25.736C205.544 26.024 206.016 26.168 206.575 26.168C207.088 26.168 207.48 26.072 207.752 25.88C208.04 25.672 208.184 25.408 208.184 25.088C208.184 24.704 207.984 24.424 207.584 24.248C207.184 24.056 206.536 23.848 205.64 23.624C204.68 23.4 203.88 23.168 203.24 22.928C202.6 22.672 202.048 22.28 201.584 21.752C201.12 21.208 200.887 20.48 200.888 19.568C200.888 18.8 201.096 18.104 201.512 17.48C201.944 16.84 202.568 16.336 203.384 15.968C204.216 15.6 205.2 15.416 206.336 15.416C208.016 15.416 209.336 15.832 210.296 16.664C211.272 17.496 211.832 18.6 211.976 19.976L208.184 19.976C208.12 19.512 207.912 19.144 207.56 18.872C207.224 18.6 206.776 18.464 206.216 18.464C205.736 18.464 205.368 18.56 205.112 18.752C204.856 18.928 204.728 19.176 204.728 19.496C204.728 19.88 204.928 20.168 205.328 20.36C205.744 20.552 206.384 20.744 207.248 20.936C208.24 21.192 209.048 21.448 209.672 21.704C210.296 21.944 210.84 22.344 211.304 22.904C211.784 23.448 212.032 24.184 212.048 25.112C212.048 25.896 211.824 26.6 211.376 27.224C210.944 27.832 210.312 28.312 209.48 28.664C208.664 29.016 207.712 29.192 206.624 29.192Z" fill="#191919"/>
    <path d="M93.8778 31.9837C92.9278 31.993 92.0135 31.5933 91.336 30.8723C90.6584 30.1514 90.2732 29.1683 90.2651 28.1393C90.257 27.1104 90.6265 26.1198 91.2925 25.3856C91.9585 24.6514 92.8664 24.2337 93.8164 24.2243L93.8471 28.104L93.8778 31.9837Z" fill="white"/>
    <path d="M93.8321 24.206C94.7822 24.2056 95.7065 24.6286 96.3784 25.3559C97.0502 26.0833 97.4277 27.07 97.4279 28.099C97.428 29.128 97.0507 30.115 96.379 30.8428C95.7073 31.5707 94.7962 31.9798 93.8461 31.9802L93.8457 28.1004L93.8321 24.206Z" fill="#FFD214"/>
</svg>
