<svg width="25" height="25" viewBox="0 0 25 25" fill="none" xmlns="http://www.w3.org/2000/svg">
<path d="M0.351563 2.08561C-0.117188 1.61686 -0.117188 0.836702 0.351563 0.351563C0.836702 -0.117188 1.60047 -0.117188 2.08561 0.351563L12.491 10.7744L22.9138 0.351563C23.3826 -0.117188 24.1628 -0.117188 24.6304 0.351563C25.1156 0.836702 25.1156 1.61795 24.6304 2.08561L14.225 12.4921L24.6304 22.9149C25.1156 23.3837 25.1156 24.1638 24.6304 24.649C24.1617 25.1177 23.3815 25.1177 22.9138 24.649L12.491 14.2261L2.08561 24.649C1.60047 25.1177 0.836702 25.1177 0.351563 24.649C-0.117188 24.1638 -0.117188 23.3826 0.351563 22.9149L10.7569 12.4921L0.351563 2.08561Z" fill="#1E201D" fill-opacity="0.8"/>
</svg>
